External Loads File
version=1
nRows=46
nColumns=13
Range=5.000000e-03-10 seconds
endheader
time 	forceRightX 	forceRightY 	forceRightZ 	pointRightX 	pointRightY 	pointRightZ 	forceLeftX 	forceLeftY 	forceLeftZ 	pointLeftX 	pointLeftY 	pointLeftZ 		
7.505000 -26.105531 553.013837 -0.000000 0.389399 0.328344 -0.161187 -10.100019 -55.323517 -0.000000 0.096721 0.307155 -0.398295
7.510000 -22.195860 577.611365 -0.000000 0.388425 0.317370 -0.161268 0.249279 -44.620976 -0.000000 0.096984 0.317867 -0.398537
7.515000 -15.974990 601.487993 -0.000000 0.387141 0.306446 -0.160867 10.374734 -36.229702 -0.000000 0.097749 0.328623 -0.398707
7.520000 -6.991331 624.733607 -0.000000 0.385096 0.295534 -0.161339 19.658978 -29.984303 -0.000000 0.099163 0.339426 -0.398910
7.525000 4.295391 647.338497 -0.000000 0.382636 0.284843 -0.161256 27.707575 -25.591302 -0.000000 0.101194 0.350216 -0.398986
7.530000 17.778580 669.212943 -0.000000 0.379658 0.274378 -0.161211 34.238656 -22.781444 -0.000000 0.103816 0.360921 -0.399077
7.535000 33.963784 690.127607 -0.000000 0.376180 0.263952 -0.161172 39.059608 -21.383049 -0.000000 0.107105 0.371588 -0.399095
7.540000 51.162007 709.858605 -0.000000 0.372184 0.254002 -0.161147 42.145347 -21.131418 -0.000000 0.110979 0.381979 -0.399136
7.545000 69.761741 728.083982 -0.000000 0.367633 0.244232 -0.161135 43.482860 -21.888988 -0.000000 0.115397 0.392081 -0.399110
7.550000 89.284534 744.540751 -0.000000 0.362636 0.234814 -0.161175 43.128307 -23.506331 -0.000000 0.120483 0.401975 -0.399058
7.555000 108.783810 759.076068 -0.000000 0.357211 0.225872 -0.161245 41.172044 -25.851280 -0.000000 0.126115 0.411566 -0.399041
7.560000 127.742797 771.536914 -0.000000 0.351463 0.217295 -0.161530 37.689694 -28.815629 -0.000000 0.132314 0.420680 -0.398991
7.565000 147.387090 781.480707 -0.000000 0.344884 0.209071 -0.161427 32.675007 -32.281055 -0.000000 0.139144 0.429456 -0.398977
7.570000 165.832018 789.050904 -0.000000 0.337985 0.201301 -0.161437 26.273614 -35.858214 -0.000000 0.146486 0.437616 -0.399040
7.575000 183.266044 794.172507 -0.000000 0.330739 0.193955 -0.161384 18.648774 -39.178303 -0.000000 0.154304 0.445318 -0.399201
7.580000 199.143668 797.037346 -0.000000 0.323179 0.187088 -0.161229 10.103542 -41.831243 -0.000000 0.162501 0.452505 -0.399254
7.585000 213.414159 797.781557 -0.000000 0.315238 0.180807 -0.161067 0.991605 -43.463735 -0.000000 0.171065 0.459141 -0.399306
7.590000 225.732725 796.595685 -0.000000 0.307085 0.174865 -0.160887 -8.297568 -43.799297 -0.000000 0.179877 0.465121 -0.399417
7.595000 236.609209 793.344019 -0.000000 0.298662 0.169573 -0.160706 -17.451609 -42.660299 -0.000000 0.189072 0.470579 -0.399480
7.600000 246.118239 787.815497 -0.000000 0.290036 0.164769 -0.160323 -26.202912 -39.942403 -0.000000 0.198527 0.475497 -0.399675
7.605000 254.693770 779.435695 -0.000000 0.281179 0.160392 -0.159920 -34.364317 -35.562102 -0.000000 0.208254 0.479813 -0.399704
7.610000 263.483654 767.140294 -0.000000 0.271825 0.156830 -0.160056 -41.787372 -29.439701 -0.000000 0.218440 0.483450 -0.399657
7.615000 269.640040 751.071559 -0.000000 0.262625 0.153881 -0.159699 -48.151806 -21.827677 -0.000000 0.228304 0.486321 -0.399693
7.620000 274.960510 729.749850 -0.000000 0.253280 0.151374 -0.159422 -53.328624 -12.886367 -0.000000 0.238300 0.488615 -0.399798
7.625000 278.386467 702.724994 -0.000000 0.243973 0.149563 -0.159166 -57.129197 -3.025376 -0.000000 0.248213 0.490183 -0.399996
7.630000 279.399117 669.470510 -0.000000 0.234640 0.148464 -0.158911 -59.454456 7.384540 -0.000000 0.257813 0.491168 -0.400273
7.635000 278.568366 629.156828 -0.000000 0.225272 0.147768 -0.158278 -60.209877 18.159980 -0.000000 0.267605 0.491575 -0.400593
7.640000 273.904365 582.339369 -0.000000 0.216111 0.147774 -0.157880 -59.378124 28.971349 -0.000000 0.276932 0.491357 -0.400891
7.645000 265.149869 529.260495 -0.000000 0.207248 0.148683 -0.157483 -57.050400 39.739261 -0.000000 0.285730 0.490540 -0.401213
7.650000 252.916101 470.134023 -0.000000 0.198509 0.150262 -0.157191 -53.404776 50.668031 -0.000000 0.294318 0.489084 -0.401584
7.655000 236.443211 406.375430 -0.000000 0.190235 0.152528 -0.157003 -48.900095 62.043647 -0.000000 0.302432 0.486999 -0.401879
7.660000 216.230253 339.312701 -0.000000 0.182314 0.155444 -0.156792 -44.039328 74.439095 -0.000000 0.310035 0.484225 -0.402186
7.665000 193.099574 270.489290 -0.000000 0.174642 0.159276 -0.156613 -39.318005 88.526491 -0.000000 0.317220 0.480681 -0.402454
7.670000 167.565826 201.932066 -0.000000 0.167304 0.163648 -0.156513 -35.329337 104.960864 -0.000000 0.324022 0.476352 -0.402943
7.675000 140.431771 135.661496 -0.000000 0.160287 0.168539 -0.156474 -32.669458 124.410527 -0.000000 0.330277 0.471384 -0.403329
7.680000 112.793004 73.447781 -0.000000 0.153485 0.173841 -0.156451 -31.880036 147.468229 -0.000000 0.335810 0.465771 -0.403603
7.685000 85.832471 16.624606 -0.000000 0.146900 0.179723 -0.156325 -33.278078 174.514391 -0.000000 0.340820 0.459427 -0.404067
7.690000 60.416506 -33.657338 -0.000000 0.140577 0.186094 -0.156239 -37.153696 205.497869 -0.000000 0.345375 0.452273 -0.404666
7.695000 37.035825 -76.499495 -0.000000 0.134439 0.193131 -0.156179 -43.190241 239.976162 -0.000000 0.349972 0.444368 -0.405409
7.700000 16.093409 -110.893366 -0.000000 0.128662 0.200583 -0.156013 -51.371956 276.978268 -0.000000 0.354216 0.435700 -0.406148
7.705000 -2.283439 -136.050046 -0.000000 0.122578 0.208389 -0.156849 -60.646488 315.314344 -0.000000 0.358305 0.426459 -0.406683
7.710000 -17.196731 -151.427899 -0.000000 0.117682 0.216498 -0.156905 -71.649046 353.223784 -0.000000 0.362168 0.417077 -0.406321
7.715000 -28.172792 -157.086972 -0.000000 0.113282 0.224672 -0.157056 -84.057043 389.183170 -0.000000 0.365805 0.407853 -0.405469
7.720000 -35.267972 -153.689815 -0.000000 0.109381 0.233226 -0.157059 -96.381248 422.355399 -0.000000 0.369074 0.397770 -0.405181
7.725000 -38.021107 -142.809350 -0.000000 0.105933 0.241995 -0.157179 -108.501117 452.236593 -0.000000 0.371883 0.387044 -0.405281
7.730000 -36.267059 -126.694217 -0.000000 0.103016 0.251405 -0.157116 -120.321729 478.878319 -0.000000 0.374492 0.376522 -0.405026
